<?xml version="1.0" encoding="utf-8"?>
<!-- Svg Vector Icons : http://www.onlinewebfonts.com/icon -->
<!DOCTYPE svg PUBLIC "-//W3C//DTD SVG 1.1//EN" "http://www.w3.org/Graphics/SVG/1.1/DTD/svg11.dtd">
<svg version="1.1" xmlns="http://www.w3.org/2000/svg" xmlns:xlink="http://www.w3.org/1999/xlink" x="0px" y="0px" viewBox="0 0 256 256" enable-background="new 0 0 256 256" xml:space="preserve">
<metadata> Svg Vector Icons : http://www.onlinewebfonts.com/icon </metadata>
<g><g><path fill="#000000" d="M153,181.9"/><path fill="#000000" d="M85,49.3v59H26v-59H85 M85.8,33.3H25.1c-4.2,0-7.8,1.5-10.7,4.4c-2.9,2.9-4.4,6.5-4.4,10.7v60.7c0,4.2,1.4,7.8,4.4,10.8c2.9,3,6.5,4.5,10.7,4.5h60.7c4.2,0,7.8-1.5,10.8-4.5c3-3,4.5-6.6,4.5-10.8V48.4c0-4.2-1.5-7.8-4.5-10.7C93.6,34.7,90,33.3,85.8,33.3L85.8,33.3z"/><path fill="#000000" d="M85,170.7v59H26v-59H85 M85.8,154.7H25.1c-4.2,0-7.8,1.5-10.7,4.4c-2.9,2.9-4.4,6.5-4.4,10.7v61c0,4.2,1.4,7.8,4.4,10.7c2.9,2.9,6.5,4.4,10.7,4.4h60.7c4.2,0,7.8-1.5,10.8-4.4c3-2.9,4.5-6.5,4.5-10.7v-61c0-4.2-1.5-7.8-4.5-10.7C93.6,156.2,90,154.7,85.8,154.7L85.8,154.7z"/><path fill="#000000" d="M206.4,170.7v59h-59v-59H206.4 M207.4,154.7h-60.7c-4.2,0-7.8,1.5-10.8,4.4c-3,2.9-4.5,6.5-4.5,10.7v61c0,4.2,1.5,7.8,4.5,10.7s6.6,4.4,10.8,4.4h60.7c4.2,0,7.8-1.5,10.7-4.4c2.9-2.9,4.4-6.5,4.4-10.7v-61c0-4.2-1.4-7.8-4.4-10.7C215.2,156.2,211.6,154.7,207.4,154.7L207.4,154.7z"/><path fill="#000000" d="M184.7,26.3L184.7,26.3c0,0,0.1,0.1,0.1,0.1l44.9,44.9l-45.1,45.1l-45-45c0,0,0,0,0,0c0,0,0.1-0.1,0.1-0.1l44.8-44.7C184.6,26.3,184.6,26.3,184.7,26.3L184.7,26.3 M184.7,10.2c-4.3,0-8,1.5-11.3,4.6L128.2,60c-3.1,3.2-4.6,7-4.6,11.4c0,4.4,1.5,8.1,4.6,11.2l45.2,45.2c3.2,3.2,7,4.9,11.3,4.9c4.3,0,8-1.6,11.3-4.9l45.2-45.2c3.2-3.1,4.9-6.8,4.9-11.2c0-4.4-1.6-8.2-4.9-11.4L196,14.9C192.8,11.8,189,10.2,184.7,10.2L184.7,10.2z"/><path fill="#000000" d="M235.4,57.8"/></g></g>
</svg>